<svg id="Layer_1" data-name="Layer 1" xmlns="http://www.w3.org/2000/svg" viewBox="0 0 101 101"><defs><style>.cls-1{fill:#fff;stroke:#d5d5d5;}.cls-2,.cls-3{fill:#323232;}.cls-2{fill-rule:evenodd;}</style></defs><title>brand-icon</title><g id="Store-Detail"><g id="brand-icon"><circle id="Oval" class="cls-1" cx="50.5" cy="50.5" r="50"/><g id="Group-45"><path id="Fill-1" class="cls-2" d="M75.92,44a5,5,0,0,0-3.61,1.5,5.24,5.24,0,0,0-1.48,3.69v1.56a1,1,0,0,0,.3.73,1,1,0,0,0,.72.31,1,1,0,0,0,.72-.31,1,1,0,0,0,.3-.73V49.19A3.11,3.11,0,0,1,73.74,47a3.1,3.1,0,0,1,4.35,0A3.12,3.12,0,0,1,79,49.19V65.81a3.16,3.16,0,0,1-.9,2.2,3,3,0,0,1-2.15.91H25.08A3,3,0,0,1,22.93,68a3.16,3.16,0,0,1-.9-2.2V49.19A3.12,3.12,0,0,1,22.91,47a3.1,3.1,0,0,1,4.35,0,3.11,3.11,0,0,1,.87,2.22v1.56a1,1,0,0,0,.3.73,1,1,0,0,0,1.44,0,1,1,0,0,0,.3-.73V49.19a5.24,5.24,0,0,0-1.48-3.69,5.09,5.09,0,0,0-7.22,0A5.28,5.28,0,0,0,20,49.19V65.81a5.24,5.24,0,0,0,1.49,3.67A5,5,0,0,0,25.08,71H75.92a5,5,0,0,0,3.59-1.52A5.24,5.24,0,0,0,81,65.81V49.19a5.28,5.28,0,0,0-1.47-3.69A5,5,0,0,0,75.92,44" transform="translate(-0.5 -0.5)"/><path id="Fill-6" class="cls-2" d="M72,57v3H31.05V57a2.93,2.93,0,0,1,.9-2.12A3.09,3.09,0,0,1,34.11,54H68.89a3.09,3.09,0,0,1,2.16.88A2.93,2.93,0,0,1,72,57M29,57v4a1,1,0,0,0,.3.71A1,1,0,0,0,30,62H73a1,1,0,0,0,.72-.29A1,1,0,0,0,74,61V57a4.89,4.89,0,0,0-1.5-3.53A5.14,5.14,0,0,0,68.89,52H34.11a5.14,5.14,0,0,0-3.61,1.47A4.89,4.89,0,0,0,29,57" transform="translate(-0.5 -0.5)"/><path id="Fill-14" class="cls-2" d="M30,44a1,1,0,0,0,.73-.3,1.05,1.05,0,0,0,.3-.73V36.26a5.3,5.3,0,0,1,.88-3A7,7,0,0,1,34.57,31,25.9,25.9,0,0,1,39,29.53,50.15,50.15,0,0,1,51.5,28.05a50.43,50.43,0,0,1,13.12,1.43,12.94,12.94,0,0,1,3.65,1.45l.08.05.09.05a6.24,6.24,0,0,1,2.85,2.55A5.53,5.53,0,0,1,72,36.26V43a1.05,1.05,0,0,0,.3.73A1,1,0,0,0,73,44a1,1,0,0,0,.72-.3A1,1,0,0,0,74,43V36.26a7.42,7.42,0,0,0-1.19-4.12,8.36,8.36,0,0,0-3.41-2.92,15,15,0,0,0-4.5-1.79A52.65,52.65,0,0,0,51.5,26a51.82,51.82,0,0,0-13.09,1.55,25.6,25.6,0,0,0-4.76,1.64,8.6,8.6,0,0,0-3.77,3.48A7.48,7.48,0,0,0,29,36.26V43a1,1,0,0,0,.3.73A1,1,0,0,0,30,44" transform="translate(-0.5 -0.5)"/><circle class="cls-3" cx="44" cy="35" r="1.5"/><path id="Fill-23" class="cls-2" d="M34.87,72H28.12a1,1,0,0,0-.79.44,1.87,1.87,0,0,0,0,2.12,1,1,0,0,0,.79.44h6.75a1,1,0,0,0,.8-.44,1.87,1.87,0,0,0,0-2.12,1,1,0,0,0-.8-.44" transform="translate(-0.5 -0.5)"/><path class="cls-2" d="M74.87,72H68.12a1,1,0,0,0-.79.44,1.87,1.87,0,0,0,0,2.12,1,1,0,0,0,.79.44h6.75a1,1,0,0,0,.8-.44,1.87,1.87,0,0,0,0-2.12,1,1,0,0,0-.8-.44" transform="translate(-0.5 -0.5)"/><circle class="cls-3" cx="38" cy="43" r="1.5"/><circle class="cls-3" cx="51" cy="43" r="1.5"/><circle class="cls-3" cx="62" cy="43" r="1.5"/><circle class="cls-3" cx="57" cy="35" r="1.5"/><path id="Path-3" class="cls-2" d="M73.07,60.73h-43" transform="translate(-0.5 -0.5)"/><path id="Path-4" class="cls-2" d="M73.07,60.5l-43,1" transform="translate(-0.5 -0.5)"/><path id="Path-5" class="cls-2" d="M73.07,60.5l-43,.5" transform="translate(-0.5 -0.5)"/></g></g></g></svg>