<svg xmlns="http://www.w3.org/2000/svg" width="325.879" height="26.771" viewBox="0 0 325.879 26.771"><defs><style>.a{fill:#fff;}</style></defs><g transform="translate(0 0)"><g transform="translate(265.99 2.606)"><path class="a" d="M398.379,339.588v1.669h3.337v1.72h-3.337v3.73h-2.212v-8.851h7.919v1.732Z" transform="translate(-395.662 -337.716)"/><path class="a" d="M405.142,346.707v-8.851h2.212v7.106H412.9v1.745Z" transform="translate(-394.41 -337.716)"/><path class="a" d="M418.338,346.863c-3.019,0-4.806-1.871-4.806-4.565s1.787-4.565,4.806-4.565,4.806,1.872,4.806,4.565S421.355,346.863,418.338,346.863Zm0-7.372c-1.786,0-2.529,1.227-2.529,2.807s.743,2.808,2.529,2.808,2.529-1.227,2.529-2.808S420.123,339.491,418.338,339.491Z" transform="translate(-393.239 -337.733)"/><path class="a" d="M428.545,346.863c-3.019,0-4.8-1.871-4.8-4.565s1.786-4.565,4.8-4.565,4.8,1.872,4.8,4.565S431.564,346.863,428.545,346.863Zm0-7.372c-1.786,0-2.53,1.227-2.53,2.807s.744,2.808,2.53,2.808,2.53-1.227,2.53-2.808S430.331,339.491,428.545,339.491Z" transform="translate(-391.814 -337.733)"/><path class="a" d="M440.879,346.707l-1.976-3.186h-2.229v3.186h-2.212v-8.851h5.152c2.087,0,3.81.923,3.81,2.807a2.583,2.583,0,0,1-2.117,2.605l2.117,3.439Zm-1.312-7.131h-2.893v2.276h2.893c1.027,0,1.581-.379,1.581-1.15C441.148,339.9,440.547,339.576,439.567,339.576Z" transform="translate(-390.318 -337.716)"/><path class="a" d="M403.184,358.553l-.87-.822a5.31,5.31,0,0,1-3.114.961c-2.354,0-3.476-.973-3.476-2.4,0-1.2.79-1.922,2.324-2.618l-.206-.2A2.525,2.525,0,0,1,396.8,351.6c0-1.276,1.185-2.035,3.065-2.035a5.965,5.965,0,0,1,2.972.834l-.775,1.062a4.243,4.243,0,0,0-2.339-.67c-.854,0-1.264.292-1.264.784,0,.366.111.606.569,1.062l3.241,3.174a5.8,5.8,0,0,0,.759-1.467l1.5.342a6.315,6.315,0,0,1-1.2,2.137l1.755,1.732ZM399,354.57c-1.044.467-1.612.934-1.612,1.656s.6,1.252,1.88,1.252a3.384,3.384,0,0,0,2.071-.684Z" transform="translate(-395.724 -336.082)"/><path class="a" d="M412.86,358.536v-3.717h-4.535v3.717H406.11v-8.851h2.214v3.388h4.535v-3.388h2.214v8.851Z" transform="translate(-394.275 -336.065)"/><path class="a" d="M420.069,358.692c-3.019,0-4.8-1.871-4.8-4.565s1.786-4.564,4.8-4.564,4.806,1.871,4.806,4.564S423.088,358.692,420.069,358.692Zm0-7.372c-1.786,0-2.528,1.227-2.528,2.807s.742,2.807,2.528,2.807,2.529-1.226,2.529-2.807S421.856,351.32,420.069,351.32Z" transform="translate(-392.997 -336.082)"/><path class="a" d="M433.128,358.536v-3.249c0-.481.031-1.607.031-1.947-.158.328-.49.96-.774,1.467l-2.245,3.931-2.244-3.931c-.285-.507-.617-1.138-.775-1.467,0,.341.032,1.467.032,1.947v3.249h-2.166v-8.851h2.134l2.309,4.008c.284.493.615,1.163.758,1.479.142-.328.458-.973.742-1.479l2.229-4.008h2.181v8.851Z" transform="translate(-391.64 -336.065)"/><path class="a" d="M435.876,358.536v-8.851h7.681v1.732h-5.469v1.53h3.176v1.72h-3.176V356.8h5.706v1.732Z" transform="translate(-390.12 -336.065)"/></g><g transform="translate(37.734 2.002)"><path class="a" d="M216.629,337.734c.032,2.635.1,3.368.5,8.4h-1.737c-1.133-4.3-3.9-6.834-7.5-6.834a6.612,6.612,0,0,0-5.635,3.2,12.7,12.7,0,0,0-1.569,6.769c0,6.032,2.669,9.605,7.234,9.605a9.248,9.248,0,0,0,8.237-5.3l1.667,1.233a11.015,11.015,0,0,1-10.47,6.3c-7.069,0-11.936-4.8-11.936-11.736a11.455,11.455,0,0,1,3.434-8.636,12.115,12.115,0,0,1,8.87-3.533,11.628,11.628,0,0,1,6.968,2.1l.7-1.569Z" transform="translate(-195.423 -337.203)"/></g><g transform="translate(60.722 2.48)"><path class="a" d="M226.468,344.193l-2.8,6.968h5.5Zm9.8,12c.835,2,1.2,2.334,2.769,2.334h.73v1.668H229v-1.668h1.5c.734,0,1.2-.364,1.2-.9a2.185,2.185,0,0,0-.23-.8l-1.6-4.035h-6.8l-1.533,4.035a2.225,2.225,0,0,0-.2.828c0,.668.332.867,1.3.867h1.5v1.668H215.6v-1.668c2,.036,2.768-.462,3.534-2.334l7.437-18.57H228.7Z" transform="translate(-215.595 -337.622)"/></g><g transform="translate(86.215 2.812)"><path class="a" d="M247.737,348.318c3.034,0,4.436-1.4,4.436-4.467,0-1.833-.57-3.135-1.669-3.8a4.173,4.173,0,0,0-2.433-.466h-2.1v8.736Zm3.435-10.4c3.6,0,5.8,2.1,5.8,5.568a5.777,5.777,0,0,1-2.736,5.105,7.893,7.893,0,0,1-3.768.895c3.4.5,3.9.937,7.539,6.47,1.53,2.368,1.9,2.669,3.2,2.669h.27v1.533h-6.006c-1.532-1.5-1.6-1.6-3.8-5.234-2.4-3.967-3.332-4.866-5-4.866a6.2,6.2,0,0,0-.7.032v5.967c0,1.267.067,1.6.4,1.935a2.918,2.918,0,0,0,2,.5h.7v1.668h-11.1v-1.668h.8c2.034,0,2.4-.364,2.4-2.433V342.018c0-2.068-.362-2.435-2.4-2.435h-.8v-1.668Z" transform="translate(-237.966 -337.914)"/></g><g transform="translate(111.042 2.812)"><path class="a" d="M267.754,348.318a9.435,9.435,0,0,0,1.3.068,6.351,6.351,0,0,0,3.5-.767,4.508,4.508,0,0,0,1.5-3.635,4.574,4.574,0,0,0-1.868-3.9,5.932,5.932,0,0,0-2.969-.534c-.464,0-.8,0-1.466.034Zm0,7.734c0,2.069.366,2.433,2.4,2.433h.77v1.668H259.753v-1.668h.8a2.9,2.9,0,0,0,2-.5c.336-.333.4-.668.4-1.935V342.018c0-1.267-.063-1.6-.4-1.935a2.85,2.85,0,0,0-2-.5h-.8v-1.668h12.836c3.8,0,6.133,2.1,6.133,5.5a6.463,6.463,0,0,1-2.7,5.435,9.349,9.349,0,0,1-4.937,1.236l-3-.1h-.334Z" transform="translate(-259.753 -337.914)"/></g><g transform="translate(131.336 2.812)"><path class="a" d="M295.634,343.684H294a6.221,6.221,0,0,0-.67-2.433c-.7-1.235-1.53-1.668-3.232-1.668h-4.535v7.74H287.6c1.565,0,2.232-.906,2.265-2.937h1.77v8.1h-1.77v-.435c0-2.1-.765-2.863-2.933-2.863h-1.369v6.662c.035,1.767.035,1.767.369,2.173.366.432.53.462,2.267.462h2.632c2.167,0,3.065-.562,3.967-2.364a10.127,10.127,0,0,0,.839-2.933H297.2l-.4,6.965H277.561v-1.668h.73a2.908,2.908,0,0,0,2-.5c.334-.333.4-.668.4-1.935V342.018c0-1.267-.065-1.6-.4-1.935-.367-.366-.937-.5-2-.5h-.73v-1.668h17.773Z" transform="translate(-277.561 -337.914)"/></g><g transform="translate(152.293 2.812)"><path class="a" d="M316.758,344.852h-1.7c-.236-3.4-1.973-5.269-4.939-5.269h-1.367v16.47c0,2.069.368,2.433,2.4,2.433h.768v1.668H300.684v-1.668h.871a2.894,2.894,0,0,0,2-.5c.336-.333.4-.668.4-1.935v-16.47h-1.233c-2.166,0-3.435.634-4.2,2.1a8.014,8.014,0,0,0-.9,3.169h-1.667l.434-6.938h19.971Z" transform="translate(-295.952 -337.914)"/></g><path class="a" d="M329.029,348.921c0,6.571,2.464,10.1,7,10.1a6.077,6.077,0,0,0,5.2-2.465c1.032-1.535,1.766-4.669,1.766-7.67,0-3.3-.867-6.337-2.235-7.835a6.442,6.442,0,0,0-4.834-1.867C331.528,339.185,329.029,342.716,329.029,348.921Zm19.2-.066a11.847,11.847,0,0,1-12.267,12.237c-7.036,0-12.168-4.967-12.168-11.8a11.512,11.512,0,0,1,3.267-8.368,12.315,12.315,0,0,1,9.266-3.738A11.513,11.513,0,0,1,348.232,348.855Z" transform="translate(-139.773 -335.204)"/><path class="a" d="M364.056,360.154l-11.968-17.806v13.7c0,1.267.064,1.6.4,1.935a2.9,2.9,0,0,0,2,.5h.733v1.664h-8.836V358.49h.7c2.039,0,2.4-.368,2.4-2.437V342.015c0-1.268-.066-1.6-.4-1.935-.362-.364-.932-.5-2-.5h-.7v-1.668h8.269l10.7,15.906v-11.8c0-1.268-.068-1.6-.4-1.935a2.708,2.708,0,0,0-2-.5h-.835v-1.668h8.869v1.668h-.636c-2.032,0-2.4.367-2.4,2.433v18.138Z" transform="translate(-136.62 -335.102)"/><path class="a" d="M388.025,343.684h-1.631a6.277,6.277,0,0,0-.668-2.433c-.7-1.233-1.536-1.668-3.234-1.668h-4.534v7.74h2.031c1.569,0,2.237-.906,2.261-2.937h1.774v8.1h-1.774v-.432c0-2.1-.761-2.867-2.926-2.867h-1.365v6.67c.032,1.764.032,1.764.366,2.166.365.431.53.469,2.265.469h2.633c2.17,0,3.067-.57,3.968-2.368a10.109,10.109,0,0,0,.834-2.933h1.569l-.4,6.965H369.95V358.49h.737a2.9,2.9,0,0,0,2-.5c.333-.333.4-.668.4-1.935V342.015c0-1.268-.068-1.6-.4-1.935a2.7,2.7,0,0,0-2-.5h-.737v-1.668h17.775Z" transform="translate(-133.331 -335.102)"/><path class="a" d="M184.656,361.972c0,.081,0,.166,0,.245h1.52a5.231,5.231,0,0,1,4.9-5.148v-.435a6.248,6.248,0,0,0-.764-.056A5.5,5.5,0,0,0,184.656,361.972Zm-4.309.032v.213h1.983c0-4.809,4.028-8.74,8.743-9.225v-.448c-.329-.031-.654-.05-.993-.05A9.7,9.7,0,0,0,180.347,362Zm8.4-26.557a26.444,26.444,0,0,0-26.441,26.442c0,.111,0,.221.006.328h4.472c0-14.148,9.842-24.09,24.285-26.241v-.425C190.307,335.481,189.536,335.446,188.751,335.446Zm-.41,26.652a.306.306,0,0,0,0,.118h1.129a1.925,1.925,0,0,1,1.6-1.967v-.387A2.382,2.382,0,0,0,188.341,362.1Zm-12.911-.165v.284h2.557A14.273,14.273,0,0,1,191.073,348.3v-.447a10.05,10.05,0,0,0-1.258-.056C181.618,348.1,175.43,353.942,175.43,361.933Zm-6.1.018v.266h3.674a19.535,19.535,0,0,1,18.067-19.689V342.1c-.586-.051-1.169-.076-1.77-.076A19.965,19.965,0,0,0,169.332,361.951Z" transform="translate(-162.31 -335.446)"/></g><g transform="translate(321.962 16.226)"><path class="a" d="M446.8,353.6a1.959,1.959,0,1,1,1.958-1.96A1.921,1.921,0,0,1,446.8,353.6Zm0-3.6a1.645,1.645,0,1,0,1.644,1.644A1.614,1.614,0,0,0,446.8,350Zm.439,1.813.44.864h-.429l-.417-.826h-.414v.826h-.364v-2.139h.939a.627.627,0,0,1,.7.646A.607.607,0,0,1,447.239,351.813Zm-.254-.923h-.565v.607h.565c.2,0,.341-.092.341-.3A.3.3,0,0,0,446.984,350.89Z" transform="translate(-444.841 -349.685)"/></g></svg>