<svg xmlns="http://www.w3.org/2000/svg" width="146" height="62" viewBox="0 0 146 62"><defs><style>.a,.b{fill:#fff;}.b,.c{fill-rule:evenodd;}</style></defs><g transform="translate(25.191 12.539)"><g transform="translate(0 18.523)"><path class="a" d="M74.546,400.472l-5.669-10.613h-.915L64.757,395.9l-2.3,4.108a.837.837,0,0,1-.6.356l-3-.039.051-9.75H60.83v-.584H54.653l-2.762,6.076c-.045.133-.124.056-.124.056l-2.639-6.187H42.636l.005.545h1.941c.084.006.09.056.09.056l-.067,9.149c-.056.467-.7.567-.7.567H42.574v.645H47.5v-.645l-1.26.006c-.788-.017-.8-.561-.8-.561l.034-8.983h.045L49.7,400.7c.1.25.236.206.236.206l.551.006c.1,0,.118-.056.118-.056l4.5-10.094.045-.005-.045,9.388c-.011.2-.079.161-.079.161l-1.975.006.022.628,12.349.039-.005-.589-1.457-.028c-.349-.006-.444-.122-.444-.122-.1-.111-.062-.361-.062-.361l1.046-1.934h4.561l1.166,2.184c.152.256.056.326.056.326l-1.772.022.006.436,7.364.037v-.479Zm-5.84-3.109s-3.78-.027-3.828-.033-.071-.051,0-.173l1.919-3.524s.056-.033.079,0l1.885,3.63S68.8,397.364,68.706,397.363Z" transform="translate(-42.574 -389.859)"/></g><path class="a" d="M293.2,400.877h-7.651v-.645h1.725s.1.015.1-.135l.015-9.774s-.465-.015-.855,0a3.481,3.481,0,0,0-2.453.817,5.514,5.514,0,0,0-1.118,1.741l-.195.473-.607-.023.195-3.593,14.185.105.142,3.57-.585.023a13.956,13.956,0,0,0-.81-1.59,3.036,3.036,0,0,0-2.775-1.463l-1.125-.008-.1,9.812s-.015.068.067.068l1.83.007Z" transform="translate(-233.47 -371.24)"/><g transform="translate(33.511 18.518)"><path class="a" d="M222.679,400.358a3.015,3.015,0,0,1-.966.155c-1.117.114-.99-.99-1.013-1.47a3.054,3.054,0,0,0-.652-2.346c-.878-1.25-3.443-1.5-3.608-1.5s-.24-.129-.128-.16.75-.053,1.283-.091,3.743-.465,3.661-2.636-3.63-2.4-4.058-2.415c-.555-.02-9.646-.061-9.646-.061v.556h1.68l-.053,10.056-1.718.015v.466l7.561.046v-.489l-1.905-.008c-.1-.008-.075-.16-.075-.16V395.6c0-.329.165-.273.165-.273h.5a7.153,7.153,0,0,1,1.208.152,1.815,1.815,0,0,1,1.118.678,4.06,4.06,0,0,1,.4,1.836l.075.99c.36,1.874,1.86,2.308,3.473,2.377a7.23,7.23,0,0,0,2.94-.526Zm-7.364-5.641c-.975.023-2.1,0-2.1,0s-.18.015-.187-.236.045-4.068.045-4.068,3.024-.157,3.623.282c.533.391.435,1.059.428,1.63a4.54,4.54,0,0,1-.217,1.7C216.7,394.412,216.29,394.693,215.315,394.716Z" transform="translate(-207.461 -389.833)"/><path class="a" d="M282.31,441.56l.006.012C282.321,441.564,282.31,441.56,282.31,441.56Z" transform="translate(-267.098 -431.047)"/></g><g transform="translate(0)"><path class="b" d="M47.217,302.931v2.018h5.911v3.864H47.217v6.229H42.575L42.6,298.72H54.109v4.211" transform="translate(-42.575 -298.72)"/><path class="b" d="M104.867,320.854h4.123l.053,7.076a1.4,1.4,0,0,0,1.368,1.448c1.4.073,1.585-1.551,1.6-1.886s0-6.638,0-6.638H116.2v11.881h-4.037v-1.5a4.084,4.084,0,0,1-3.633,1.787c-2.866,0-3.5-2.622-3.662-4.191C104.706,327.28,104.867,320.854,104.867,320.854Z" transform="translate(-92.15 -316.355)"/><path class="b" d="M169.7,319.627h4.037v1.846s.786-1.807,2.2-2.059a3.4,3.4,0,0,1,2.071.1v3.97s-1.884-.639-2.749-.052a2.347,2.347,0,0,0-1.3,2.185l-.071,5.9-4.187-.01Z" transform="translate(-143.866 -315.128)"/><path class="b" d="M215.106,319.594h4.038v1.5a4.245,4.245,0,0,1,4.14-1.793s2.842.147,3.236,3.637l-.051,8.48h-4.1l-.058-6.892s.054-1.687-1.343-1.607-1.558,1.039-1.6,1.73-.058,6.826-.058,6.826h-4.152Z" transform="translate(-180.041 -315.095)"/><path class="b" d="M284.668,332.678h-4.124l-.029-11.823H284.7Z" transform="translate(-232.156 -316.356)"/><rect class="a" width="4.21" height="3.172" transform="translate(48.33 0.058)"/><path class="b" d="M305.345,306.574h1.817v-3.643h4.194l.045,3.614,2.191.029v2.768H311.4v4.7s-.055,1.158,1.644,1.009c.424-.037.548-.057.548-.057v3.4a21.522,21.522,0,0,1-3.8.111s-2.561-.035-2.632-3.564l.035-5.574-1.846-.029Z" transform="translate(-251.94 -302.075)"/><path class="b" d="M350.273,320.854h4.181v7.18a1.3,1.3,0,0,0,1.592,1.334c1.661-.134,1.456-2.142,1.454-3.179s-.048-5.336-.048-5.336h4.153v11.881l-3.979-.029-.009-1.431a4.034,4.034,0,0,1-3.769,1.754c-2.815-.055-3.546-2.387-3.575-4.216S350.273,320.854,350.273,320.854Z" transform="translate(-287.726 -316.355)"/><g transform="translate(75.667 4.172)"><path class="a" d="M434.487,323.14c-1.085-4.04-5.359-3.882-5.359-3.882-4.463-.211-5.89,4.041-5.89,4.041l-.052-3.841a3.384,3.384,0,0,0-4.268,1.961v-1.846h-4.037l.057,11.852,4.215-.024V325.47a2.491,2.491,0,0,1,1.51-2.163,3.785,3.785,0,0,1,2.523.131,9.633,9.633,0,0,0-.011,4.075,6,6,0,0,0,6.053,4.243c4.875-.491,5.435-3.79,5.435-3.79l-3.864-.029a2.122,2.122,0,0,1-3.078.4,2.813,2.813,0,0,1-.786-1.841l7.958-.039A12.565,12.565,0,0,0,434.487,323.14Zm-7.552.989a2.056,2.056,0,0,1,2.093-1.978,1.887,1.887,0,0,1,1.887,2Z" transform="translate(-414.881 -319.246)"/></g></g><g transform="translate(66.617 18.418)"><path class="a" d="M379.353,397.274c0,3.01-1.48,4.455-4.494,4.455s-4.508-1.444-4.508-4.455v-6.659h3.042v5.914c0,1.11,0,2.493,1.48,2.493,1.438,0,1.438-1.383,1.438-2.493v-5.914h3.042Z" transform="translate(-370.35 -390.357)"/><path class="a" d="M422.179,396.809a2.179,2.179,0,0,0,.111.714,1.371,1.371,0,0,0,1.452.791c.5,0,1.258-.182,1.258-.988,0-.563-.429-.715-2.13-1.247-1.563-.487-3.347-.958-3.347-3.147,0-2.509,1.95-3.588,3.983-3.588,2.144,0,4.038.9,4.121,3.542h-2.877a.862.862,0,0,0-.36-.867,1.472,1.472,0,0,0-.9-.274c-.415,0-1.092.122-1.092.73.055.775,1.466.943,2.863,1.368s2.78,1.14,2.78,3.132c0,2.828-2.365,3.74-4.564,3.74-1.12,0-4.315-.441-4.342-3.907Z" transform="translate(-409.222 -389.344)"/><path class="a" d="M466.8,390.615h2.973l3.6,10.856h-3.153l-.415-1.551H466.66l-.443,1.551h-3.056Zm2.393,6.979-.885-3.345h-.028l-.954,3.345Z" transform="translate(-444.298 -390.357)"/></g></g><rect class="a" width="146" height="62"/><g transform="translate(25.191 12.539)"><g transform="translate(0 18.523)"><path d="M74.546,400.472l-5.669-10.613h-.915L64.757,395.9l-2.3,4.108a.837.837,0,0,1-.6.356l-3-.039.051-9.75H60.83v-.584H54.653l-2.762,6.076c-.045.133-.124.056-.124.056l-2.639-6.187H42.636l.005.545h1.941c.084.006.09.056.09.056l-.067,9.149c-.056.467-.7.567-.7.567H42.574v.645H47.5v-.645l-1.26.006c-.788-.017-.8-.561-.8-.561l.034-8.983h.045L49.7,400.7c.1.25.236.206.236.206l.551.006c.1,0,.118-.056.118-.056l4.5-10.094.045-.005-.045,9.388c-.011.2-.079.161-.079.161l-1.975.006.022.628,12.349.039-.005-.589-1.457-.028c-.349-.006-.444-.122-.444-.122-.1-.111-.062-.361-.062-.361l1.046-1.934h4.561l1.166,2.184c.152.256.056.326.056.326l-1.772.022.006.436,7.364.037v-.479Zm-5.84-3.109s-3.78-.027-3.828-.033-.071-.051,0-.173l1.919-3.524s.056-.033.079,0l1.885,3.63S68.8,397.364,68.706,397.363Z" transform="translate(-42.574 -389.859)"/></g><path d="M293.2,400.877h-7.651v-.645h1.725s.1.015.1-.135l.015-9.774s-.465-.015-.855,0a3.481,3.481,0,0,0-2.453.817,5.514,5.514,0,0,0-1.118,1.741l-.195.473-.607-.023.195-3.593,14.185.105.142,3.57-.585.023a13.956,13.956,0,0,0-.81-1.59,3.036,3.036,0,0,0-2.775-1.463l-1.125-.008-.1,9.812s-.015.068.067.068l1.83.007Z" transform="translate(-233.47 -371.24)"/><g transform="translate(33.511 18.518)"><path d="M222.679,400.358a3.015,3.015,0,0,1-.966.155c-1.117.114-.99-.99-1.013-1.47a3.054,3.054,0,0,0-.652-2.346c-.878-1.25-3.443-1.5-3.608-1.5s-.24-.129-.128-.16.75-.053,1.283-.091,3.743-.465,3.661-2.636-3.63-2.4-4.058-2.415c-.555-.02-9.646-.061-9.646-.061v.556h1.68l-.053,10.056-1.718.015v.466l7.561.046v-.489l-1.905-.008c-.1-.008-.075-.16-.075-.16V395.6c0-.329.165-.273.165-.273h.5a7.153,7.153,0,0,1,1.208.152,1.815,1.815,0,0,1,1.118.678,4.06,4.06,0,0,1,.4,1.836l.075.99c.36,1.874,1.86,2.308,3.473,2.377a7.23,7.23,0,0,0,2.94-.526Zm-7.364-5.641c-.975.023-2.1,0-2.1,0s-.18.015-.187-.236.045-4.068.045-4.068,3.024-.157,3.623.282c.533.391.435,1.059.428,1.63a4.54,4.54,0,0,1-.217,1.7C216.7,394.412,216.29,394.693,215.315,394.716Z" transform="translate(-207.461 -389.833)"/><path d="M282.31,441.56l.006.012C282.321,441.564,282.31,441.56,282.31,441.56Z" transform="translate(-267.098 -431.047)"/></g><g transform="translate(0)"><path class="c" d="M47.217,302.931v2.018h5.911v3.864H47.217v6.229H42.575L42.6,298.72H54.109v4.211" transform="translate(-42.575 -298.72)"/><path class="c" d="M104.867,320.854h4.123l.053,7.076a1.4,1.4,0,0,0,1.368,1.448c1.4.073,1.585-1.551,1.6-1.886s0-6.638,0-6.638H116.2v11.881h-4.037v-1.5a4.084,4.084,0,0,1-3.633,1.787c-2.866,0-3.5-2.622-3.662-4.191C104.706,327.28,104.867,320.854,104.867,320.854Z" transform="translate(-92.15 -316.355)"/><path class="c" d="M169.7,319.627h4.037v1.846s.786-1.807,2.2-2.059a3.4,3.4,0,0,1,2.071.1v3.97s-1.884-.639-2.749-.052a2.347,2.347,0,0,0-1.3,2.185l-.071,5.9-4.187-.01Z" transform="translate(-143.866 -315.128)"/><path class="c" d="M215.106,319.594h4.038v1.5a4.245,4.245,0,0,1,4.14-1.793s2.842.147,3.236,3.637l-.051,8.48h-4.1l-.058-6.892s.054-1.687-1.343-1.607-1.558,1.039-1.6,1.73-.058,6.826-.058,6.826h-4.152Z" transform="translate(-180.041 -315.095)"/><path class="c" d="M284.668,332.678h-4.124l-.029-11.823H284.7Z" transform="translate(-232.156 -316.356)"/><rect width="4.21" height="3.172" transform="translate(48.33 0.058)"/><path class="c" d="M305.345,306.574h1.817v-3.643h4.194l.045,3.614,2.191.029v2.768H311.4v4.7s-.055,1.158,1.644,1.009c.424-.037.548-.057.548-.057v3.4a21.522,21.522,0,0,1-3.8.111s-2.561-.035-2.632-3.564l.035-5.574-1.846-.029Z" transform="translate(-251.94 -302.075)"/><path class="c" d="M350.273,320.854h4.181v7.18a1.3,1.3,0,0,0,1.592,1.334c1.661-.134,1.456-2.142,1.454-3.179s-.048-5.336-.048-5.336h4.153v11.881l-3.979-.029-.009-1.431a4.034,4.034,0,0,1-3.769,1.754c-2.815-.055-3.546-2.387-3.575-4.216S350.273,320.854,350.273,320.854Z" transform="translate(-287.726 -316.355)"/><g transform="translate(75.667 4.172)"><path d="M434.487,323.14c-1.085-4.04-5.359-3.882-5.359-3.882-4.463-.211-5.89,4.041-5.89,4.041l-.052-3.841a3.384,3.384,0,0,0-4.268,1.961v-1.846h-4.037l.057,11.852,4.215-.024V325.47a2.491,2.491,0,0,1,1.51-2.163,3.785,3.785,0,0,1,2.523.131,9.633,9.633,0,0,0-.011,4.075,6,6,0,0,0,6.053,4.243c4.875-.491,5.435-3.79,5.435-3.79l-3.864-.029a2.122,2.122,0,0,1-3.078.4,2.813,2.813,0,0,1-.786-1.841l7.958-.039A12.565,12.565,0,0,0,434.487,323.14Zm-7.552.989a2.056,2.056,0,0,1,2.093-1.978,1.887,1.887,0,0,1,1.887,2Z" transform="translate(-414.881 -319.246)"/></g></g><g transform="translate(66.617 18.418)"><path d="M379.353,397.274c0,3.01-1.48,4.455-4.494,4.455s-4.508-1.444-4.508-4.455v-6.659h3.042v5.914c0,1.11,0,2.493,1.48,2.493,1.438,0,1.438-1.383,1.438-2.493v-5.914h3.042Z" transform="translate(-370.35 -390.357)"/><path d="M422.179,396.809a2.179,2.179,0,0,0,.111.714,1.371,1.371,0,0,0,1.452.791c.5,0,1.258-.182,1.258-.988,0-.563-.429-.715-2.13-1.247-1.563-.487-3.347-.958-3.347-3.147,0-2.509,1.95-3.588,3.983-3.588,2.144,0,4.038.9,4.121,3.542h-2.877a.862.862,0,0,0-.36-.867,1.472,1.472,0,0,0-.9-.274c-.415,0-1.092.122-1.092.73.055.775,1.466.943,2.863,1.368s2.78,1.14,2.78,3.132c0,2.828-2.365,3.74-4.564,3.74-1.12,0-4.315-.441-4.342-3.907Z" transform="translate(-409.222 -389.344)"/><path d="M466.8,390.615h2.973l3.6,10.856h-3.153l-.415-1.551H466.66l-.443,1.551h-3.056Zm2.393,6.979-.885-3.345h-.028l-.954,3.345Z" transform="translate(-444.298 -390.357)"/></g></g></svg>