<svg xmlns="http://www.w3.org/2000/svg" width="140" height="62" viewBox="0 0 140 62"><defs><style>.a{fill:#fff;}</style></defs><g transform="translate(26 13.49)"><path class="a" d="M64.774,28.609h0c-.123,0-.246,0-.366-.007a7.7,7.7,0,0,1-3.088-.613,3.3,3.3,0,0,1-1.118-.855,3.258,3.258,0,0,1-.655-1.382l-.1-1.188a7.1,7.1,0,0,0-.073-.885,2.648,2.648,0,0,0-.483-1.317,2.643,2.643,0,0,0-1.564-.813,11.618,11.618,0,0,0-1.69-.183h-.693a.147.147,0,0,0-.037,0c-.073,0-.194.043-.194.332V27.35a.219.219,0,0,0,.032.16.1.1,0,0,0,.073.032l2.666.009v.75L46.9,28.245v-.722l2.4-.018.074-12.063H47.024v-.667h.269c3.766.015,12.594.053,13.23.072a13.189,13.189,0,0,1,3.021.479,5.342,5.342,0,0,1,1.806.869,2.022,2.022,0,0,1,.2,3.135,4.53,4.53,0,0,1-1.592.954,10.983,10.983,0,0,1-2.884.621c-.27.017-.564.031-.823.044h0c-.467.023-.871.043-.972.066-.052.012-.079.038-.074.072.009.058.108.12.253.12a12.884,12.884,0,0,1,2.151.338,8.8,8.8,0,0,1,1.624.549,3.578,3.578,0,0,1,1.275.914,3.094,3.094,0,0,1,.922,2.475,2.949,2.949,0,0,0-.009.34c0,.064,0,.137.005.215a2.417,2.417,0,0,0,.159,1,.9.9,0,0,0,.354.395,1.323,1.323,0,0,0,.682.159c.069,0,.141,0,.216-.01a4.889,4.889,0,0,0,1.352-.187l.328.57h0a9.684,9.684,0,0,1-1.088.317A11.835,11.835,0,0,1,64.774,28.609Zm-9.824-7.975h0c.074,0,.744.012,1.57.012.505,0,.966,0,1.368-.012a4.223,4.223,0,0,0,1.518-.251,1.437,1.437,0,0,0,.708-.58,4.627,4.627,0,0,0,.3-2.011v-.027c0-.084,0-.171.008-.256v0a3.4,3.4,0,0,0-.049-.927,1.213,1.213,0,0,0-.557-.771,9.843,9.843,0,0,0-3.413-.371c-.892,0-1.626.032-1.657.033,0,.042-.074,4.577-.063,4.88.009.27.213.283.254.283Zm28.637,7.8H72.879v-.786H75.3c.032,0,.136-.012.136-.165l.021-11.907s-.3-.008-.644-.008c-.206,0-.392,0-.553.008l-.185,0a6.388,6.388,0,0,0-1.375.134,4.886,4.886,0,0,0-1.872.859,6.83,6.83,0,0,0-1.564,2.12l-.273.576-.85-.027.273-4.377L88.268,15l.2,4.35-.819.027a16.285,16.285,0,0,0-1.133-1.937,3.179,3.179,0,0,0-.86-.888,4.419,4.419,0,0,0-1.2-.612,5.8,5.8,0,0,0-1.825-.282l-1.575-.009L80.92,27.6a.066.066,0,0,0,.014.057.106.106,0,0,0,.08.026l2.562.009.01.749Zm-36.97-.193L36.311,28.2l-.008-.7,2.48-.026s.133-.088-.079-.4l-1.632-2.693H30.69l-1.465,2.385s-.054.309.087.445c0,0,.138.144.622.151l2.039.034.008.727L14.7,28.068l-.031-.775,2.763-.007a.045.045,0,0,0,.019,0c.03,0,.081-.026.092-.2L17.6,15.511l-.063.007-6.3,12.447s-.025.069-.165.069l-.772-.007a.142.142,0,0,1-.035,0c-.066,0-.193-.033-.3-.257L4.126,15.456H4.063L4.015,26.532a.611.611,0,0,0,.146.338,1.22,1.22,0,0,0,.972.354L6.9,27.218v.8H0v-.8H1.866a1.937,1.937,0,0,0,.459-.134.788.788,0,0,0,.518-.566l.094-11.281s-.009-.062-.126-.069H.095L.087,14.5H9.172l3.693,7.628a.124.124,0,0,0,.071.028c.043,0,.077-.032.1-.1L16.9,14.565h8.645v.72H22.856l-.071,12.022,4.2.048a1.241,1.241,0,0,0,.842-.439l3.212-5.065,4.485-7.45H36.81l7.933,13.086h1.874v.758h0ZM33.969,19.036a.172.172,0,0,0-.067.018L31.217,23.4c-.058.085-.078.149-.058.184a.066.066,0,0,0,.055.03c.064.006,4.811.037,5.353.04h.007a.09.09,0,0,0,.075-.027c.028-.036,0-.1,0-.1l-2.638-4.476A.05.05,0,0,0,33.969,19.036ZM82.9,13.407a7.189,7.189,0,0,1-2.6-.5,5.1,5.1,0,0,1-1.609-1.023,4.7,4.7,0,0,1-1.2-1.889,7.827,7.827,0,0,1-.176-1.1,5.526,5.526,0,0,1,.187-2.172,4.154,4.154,0,0,0-1.378-.237,3.339,3.339,0,0,0-.95.132,1.779,1.779,0,0,0-1.024.731,2.643,2.643,0,0,0-.328.846c-.015.061-.028.114-.042.161v4.766l-3.89.02L69.84,3.615h3.726V5.1h0a3.316,3.316,0,0,1,.651-.871,3.126,3.126,0,0,1,.87-.6,3.057,3.057,0,0,1,1.284-.273,4.116,4.116,0,0,1,1.133.17l.048,3.086v0a5.443,5.443,0,0,1,1.113-1.625,5.348,5.348,0,0,1,1.585-1.118,5.812,5.812,0,0,1,2.443-.508c.1,0,.2,0,.295.006h.059a6.688,6.688,0,0,1,2.281.431,4.665,4.665,0,0,1,1.52.931,3.98,3.98,0,0,1,1.086,1.758,8.958,8.958,0,0,1,.375,2.664l-7.346.031a2.273,2.273,0,0,0,.1.543,1.853,1.853,0,0,0,.624.936,2.283,2.283,0,0,0,2.13.223,1.756,1.756,0,0,0,.712-.544l3.567.023a3.064,3.064,0,0,1-.821,1.375,4.838,4.838,0,0,1-1.514,1.028,8.4,8.4,0,0,1-2.682.642S83.014,13.407,82.9,13.407Zm-.082-7.722a1.994,1.994,0,0,0-1.02.249,1.6,1.6,0,0,0-.555.547,1.977,1.977,0,0,0-.276.8l3.673.02a.338.338,0,0,1-.008-.066,1.778,1.778,0,0,0-.27-.868A1.7,1.7,0,0,0,82.9,5.686ZM61.145,13.4h-.116a3.151,3.151,0,0,1-2.614-1.159,3.839,3.839,0,0,1-.686-2.229c-.026-1.449,0-6.345,0-6.394h3.859V9.384a1.067,1.067,0,0,0,.326.775,1.37,1.37,0,0,0,.952.3c.062,0,.126,0,.192-.007a1.422,1.422,0,0,0,.8-.279,1.284,1.284,0,0,0,.4-.584A4.113,4.113,0,0,0,64.4,8.151c0-.089,0-.172,0-.249,0-.811-.042-4.145-.044-4.287H68.19v9.546l-3.673-.023-.009-1.149h0a2.645,2.645,0,0,1-.741.7,3.93,3.93,0,0,1-1.039.485A5.426,5.426,0,0,1,61.145,13.4ZM15.12,13.392h0a3.046,3.046,0,0,1-2.627-1.211,4.55,4.55,0,0,1-.754-2.156c-.146-1.23,0-6.359,0-6.41h3.806l.05,5.686a1.234,1.234,0,0,0,.147.56,1.06,1.06,0,0,0,.373.4,1.516,1.516,0,0,0,.742.206l.083,0a1.235,1.235,0,0,0,1.148-.66,2.141,2.141,0,0,0,.25-.857c.017-.266,0-5.283,0-5.334H22.2v9.546H18.471v-1.2h0a2.849,2.849,0,0,1-.759.717,3.989,3.989,0,0,1-1.037.494A5.187,5.187,0,0,1,15.12,13.392Zm39.224-.142h0a7.943,7.943,0,0,1-.952-.046,2.619,2.619,0,0,1-1.19-.368,2.351,2.351,0,0,1-.832-.851,3.429,3.429,0,0,1-.407-1.644L51,5.862l-1.7-.023V3.615h1.677V.688h3.872l.041,2.9,2.022.023V5.839H54.882V9.616a.72.72,0,0,0,.242.525,1.465,1.465,0,0,0,1.008.3c.085,0,.175,0,.267-.011.39-.03.5-.046.505-.046v2.734H56.9C56.657,13.138,55.4,13.25,54.345,13.25Zm-26.632-.081h0l-3.864-.008V3.615h3.726v1.48a4.036,4.036,0,0,1,.524-.748,3.211,3.211,0,0,1,.636-.559,2.194,2.194,0,0,1,.866-.344,6.087,6.087,0,0,1,.919-.08,2.668,2.668,0,0,1,.857.123,1.371,1.371,0,0,0,.135.036v3.19a6.574,6.574,0,0,0-1.588-.241,1.888,1.888,0,0,0-.95.2,2.8,2.8,0,0,0-.875.695,1.923,1.923,0,0,0-.323,1.061l-.065,4.742Zm8.538-.008H32.418l-.053-9.546h3.727v1.2h0a3.13,3.13,0,0,1,.778-.73,4.049,4.049,0,0,1,1.029-.5,4.841,4.841,0,0,1,1.5-.229c.166,0,.338.008.509.022a3.513,3.513,0,0,1,1.357.409,3.023,3.023,0,0,1,1.01.873A3.494,3.494,0,0,1,42.9,6.3l-.048,6.814h-3.78l-.053-5.538a1.473,1.473,0,0,0-.4-1.034,1.092,1.092,0,0,0-.755-.259l-.088,0a2.1,2.1,0,0,0-.769.166,1.125,1.125,0,0,0-.438.345,1.6,1.6,0,0,0-.268.879c-.037.552-.053,5.435-.053,5.484Zm12.217-.046H44.661l-.027-9.5h3.86Zm-44.183,0H0L.027,0h10.62V3.383H4.285V5H9.741v3.1H4.285v5ZM48.494,2.6H44.608V.047h3.886V2.6Z" transform="translate(0 0)"/></g></svg>