<svg xmlns="http://www.w3.org/2000/svg" width="23.342" height="21.007" viewBox="0 0 23.342 21.007"><defs><style>.a{fill:#36bdb4;}</style></defs><g transform="translate(0)"><path class="a" d="M20.669,16.935A3.735,3.735,0,1,1,16.935,13.2,3.735,3.735,0,0,1,20.669,16.935Z" transform="translate(-5.264 -5.264)"/><path class="a" d="M11.17,3,9.034,5.334h-3.7A2.341,2.341,0,0,0,3,7.668v14a2.341,2.341,0,0,0,2.334,2.334H24.007a2.341,2.341,0,0,0,2.334-2.334v-14a2.341,2.341,0,0,0-2.334-2.334h-3.7L18.172,3Zm3.5,17.506a5.835,5.835,0,1,1,5.835-5.835A5.838,5.838,0,0,1,14.671,20.506Z" transform="translate(-3 -3)"/></g></svg>