<svg xmlns="http://www.w3.org/2000/svg" viewBox="0 0 338.91 136.37"><g id="Layer_2" data-name="Layer 2"><path d="M336.66 136.37H2.25a2.25 2.25 0 0 1 0-4.5h11.09V56.6a2.25 2.25 0 0 1 2.25-2.25h72.25a2.25 2.25 0 0 1 0 4.5h-70v73h14.62V82.63a2.25 2.25 0 0 1 2.25-2.25h53.13a2.25 2.25 0 0 1 0 4.5H37v47h15.73v-42.7a2.25 2.25 0 0 1 4.5 0v42.69h15.12V89.18a2.25 2.25 0 0 1 4.5 0v42.69h15.28V2.25A2.25 2.25 0 0 1 94.38 0h150.15a2.25 2.25 0 0 1 2.25 2.25v129.62h15.27V89.18a2.25 2.25 0 0 1 4.5 0v42.69h15.12V89.18a2.25 2.25 0 0 1 4.5 0v42.69h15.41v-47h-51.72a2.25 2.25 0 0 1 0-4.5h54a2.25 2.25 0 0 1 2.25 2.25v49.24H321v-73h-71.14a2.25 2.25 0 0 1 0-4.5h73.39a2.25 2.25 0 0 1 2.25 2.25v75.27h11.16a2.25 2.25 0 0 1 0 4.5zm-112-4.5h17.57V4.5H96.63v127.37h17.3v-97.3a2.25 2.25 0 0 1 2.25-2.25h106.28a2.25 2.25 0 0 1 2.25 2.25zm-24.87 0h20.37V43.5H118.43v88.37h20.64v-39a2.25 2.25 0 0 1 2.25-2.25h56.27a2.25 2.25 0 0 1 2.25 2.25zm-28.13 0h23.63V95.12h-51.72v36.75h23.64v-24.69a2.25 2.25 0 1 1 4.5 0zM118.43 39h101.78v-2.18H118.43zm72.42 63.12h-42.79a2.25 2.25 0 0 1 0-4.5h42.79a2.25 2.25 0 1 1 0 4.5zM327.42 53h-77.57a2.25 2.25 0 0 1 0-4.5h75.32v-8.81h-75.32a2.25 2.25 0 1 1 0-4.5h77.57a2.25 2.25 0 0 1 2.25 2.25V50.7a2.25 2.25 0 0 1-2.25 2.3zM87.85 53H11.48a2.25 2.25 0 0 1-2.25-2.3V37.44a2.25 2.25 0 0 1 2.25-2.25h76.37a2.25 2.25 0 0 1 0 4.5H13.73v8.76h74.12a2.25 2.25 0 0 1 0 4.5z" id="Layer_1-2" data-name="Layer 1"/></g></svg>