<svg id="Layer_1" data-name="Layer 1" xmlns="http://www.w3.org/2000/svg" viewBox="0 0 155 141"><path d="M77.38 64.25a2.57 2.57 0 0 1-.67-.09L18.43 48.21a2.53 2.53 0 0 1 0-4.88l58.28-16a2.54 2.54 0 0 1 1.34 0l58.28 16a2.53 2.53 0 0 1 0 4.88L78.05 64.16a2.57 2.57 0 0 1-.67.09zM28.66 45.77l48.72 13.34 48.72-13.34-48.72-13.34z"/><path d="M77.38 141a2.53 2.53 0 0 1-2.53-2.53V61.73a2.53 2.53 0 0 1 5.06 0v76.72a2.53 2.53 0 0 1-2.53 2.55z"/><path d="M77.38 141a2.57 2.57 0 0 1-.67-.09l-58.28-16a2.53 2.53 0 0 1-1.86-2.44v-45a2.53 2.53 0 1 1 5.05 0v43.07l55.76 15.26 55.76-15.26V77.5a2.53 2.53 0 1 1 5.05 0v45a2.53 2.53 0 0 1-1.86 2.44l-58.28 16a2.57 2.57 0 0 1-.67.06zM19.56 48.3a2.52 2.52 0 0 1-2.15-1.21L.7 19.93a2.52 2.52 0 0 1-.2-2.25 2.55 2.55 0 0 1 1.69-1.51L60.48.21a2.53 2.53 0 0 1 2.82 1.12L80 28.49a2.53 2.53 0 0 1-1.48 3.76l-58.3 16a2.44 2.44 0 0 1-.66.05zM6.77 20.15l14 22.68 53.16-14.57L60 5.59z"/><path d="M136.14 48.3a2.52 2.52 0 0 1-.67-.09l-58.29-16a2.53 2.53 0 0 1-1.48-3.76L92.4 1.33A2.52 2.52 0 0 1 95.22.21l58.29 16a2.53 2.53 0 0 1 1.49 3.72l-16.7 27.16a2.54 2.54 0 0 1-2.16 1.21zm-54.37-20L135 42.83l13.94-22.68L95.71 5.59z"/><path d="M94.09 91.41a2.53 2.53 0 0 1-2.16-1.2l-16.7-27.16a2.53 2.53 0 0 1 1.48-3.76l58.29-16a2.53 2.53 0 0 1 2.82 1.12l16.71 27.19a2.54 2.54 0 0 1 .19 2.26 2.51 2.51 0 0 1-1.72 1.51L94.75 91.32a2.5 2.5 0 0 1-.66.09zM81.3 63.27 95.24 86l53.21-14.57-13.94-22.72z"/><path d="M60.61 91.41a2.52 2.52 0 0 1-.67-.09L1.65 75.37A2.53 2.53 0 0 1 .17 71.6l16.7-27.15a2.53 2.53 0 0 1 2.82-1.12L78 59.29a2.53 2.53 0 0 1 1.48 3.76L62.76 90.21a2.53 2.53 0 0 1-2.15 1.2zm-54.37-20L59.45 86l13.94-22.73-53.21-14.56z"/></svg>