<?xml version="1.0" encoding="utf-8"?>
<!-- Generator: Adobe Illustrator 23.0.1, SVG Export Plug-In . SVG Version: 6.00 Build 0)  -->
<svg version="1.1" id="Layer_1" xmlns="http://www.w3.org/2000/svg" xmlns:xlink="http://www.w3.org/1999/xlink" x="0px" y="0px"
	 viewBox="0 0 102 102" style="enable-background:new 0 0 102 102;" xml:space="preserve">
<style type="text/css">
	.st0{fill-rule:evenodd;clip-rule:evenodd;fill:#FFFFFF;stroke:#D5D5D5;}
	.st1{fill-rule:evenodd;clip-rule:evenodd;fill:#323232;}
	.st2{fill-rule:evenodd;clip-rule:evenodd;fill:#FFFFFF;}
</style>
<title>new icon</title>
<desc>Created with Sketch.</desc>
<g id="Store-Detail">
	<g transform="translate(-566.000000, -766.000000)">
		<g id="new-icon" transform="translate(567.000000, 767.000000)">
			<circle id="Oval" class="st0" cx="50" cy="50" r="50"/>
			<g id="Group-7" transform="translate(13.000000, 31.000000)">
				<polygon id="Fill-1" class="st1" points="51,0 47,23.4 60.9,23.5 60.9,62.4 63.5,60.8 63.5,23.5 77,23.5 73.4,0 				"/>
				<g id="Group-6" transform="translate(0.000000, 22.000000)">
					<path id="Fill-2" class="st1" d="M4.6,34.4l7-12.2c0,0-13.7-7-11.3-17.7c0,0,1.7-3.5,12.8-3.7c11.1-0.1,12.4,1.4,12.4,1.4
						s2,2.3,5.3,1.9c0,0,7.2-1,9,2.4c0,0,2.8,6.6-2.5,13.3c0,0-3.1,3.3-7.3,4l11.6,22.6l-2.9,0.2L27.3,24.2c0,0-2.6,0.2-4.1,0.2
						l5.1,21.4l-3.1-0.6l-4.6-20.8h-2.3l-3.3,17L12.4,40l3.4-16.4l-1.7-0.5l-7.3,13L4.6,34.4z"/>
					<path id="Fill-4" class="st2" d="M12.5,3.7c0,0-5,0-8.1,0.8C2.5,5.3,5.9,7.8,8.7,8c2.8,0.2,3.6,0.5,4.1,4.3
						c0.5,3.8,1.3,7.8,4.8,9.5c1.1,0.2,2.2,0.3,3.4,0.3H21h1l0,0c7.5,0.1,11.3-1.9,13.3-4.5c2-2.6,2-5.9,2-7.7
						c0-1.4-0.4-2.1-0.9-2.5C35.8,7,34.7,7,33.5,6.9c-0.5,0-1.1,0-1.7,0C29.2,7,26.3,7,24.2,5c-1.5-1.4-5.4-1.4-9.8-1.4L12.5,3.7z"
						/>
				</g>
			</g>
		</g>
	</g>
</g>
</svg>
