<svg xmlns="http://www.w3.org/2000/svg" width="76.304" height="76.304" viewBox="0 0 76.304 76.304"><defs><style>.a{fill:none;stroke:#ad1f23;stroke-linecap:round;stroke-linejoin:round;stroke-width:3px;}</style></defs><g transform="translate(1.5 1.5)"><g transform="translate(0 0)"><path class="a" d="M727.04,267.978c0,1.841-4.268,3.326-4.545,5.089-.284,1.81,3.313,4.535,2.76,6.24-.563,1.736-5.081,1.826-5.9,3.429-.826,1.62,1.748,5.329.686,6.789s-5.391.158-6.67,1.438.029,5.6-1.437,6.67-5.169-1.512-6.788-.685c-1.6.818-1.694,5.336-3.429,5.9-1.7.554-4.431-3.044-6.241-2.76-1.763.277-3.248,4.545-5.089,4.545s-3.325-4.267-5.089-4.545c-1.81-.284-4.536,3.314-6.241,2.76-1.735-.563-1.826-5.081-3.429-5.9-1.62-.827-5.329,1.748-6.789.685s-.157-5.391-1.437-6.671-5.6.029-6.671-1.437,1.513-5.169.686-6.788c-.818-1.6-5.336-1.694-5.9-3.429-.553-1.7,3.044-4.431,2.76-6.241-.277-1.763-4.545-3.248-4.545-5.089s4.268-3.325,4.545-5.088c.284-1.81-3.313-4.536-2.76-6.241.564-1.735,5.082-1.826,5.9-3.429.827-1.619-1.748-5.329-.686-6.789s5.392-.157,6.671-1.437-.028-5.6,1.437-6.67,5.169,1.513,6.789.686c1.6-.818,1.693-5.336,3.429-5.9,1.705-.554,4.43,3.045,6.24,2.761,1.763-.277,3.248-4.545,5.089-4.545s3.326,4.268,5.089,4.545c1.81.284,4.535-3.314,6.24-2.761,1.735.564,1.826,5.082,3.429,5.9,1.62.827,5.329-1.748,6.789-.686s.157,5.392,1.437,6.671,5.6-.029,6.67,1.437-1.513,5.169-.686,6.788c.818,1.6,5.336,1.693,5.9,3.428.553,1.7-3.044,4.431-2.76,6.241C722.772,264.652,727.04,266.137,727.04,267.978Z" transform="translate(-653.736 -231.327)"/><path class="a" d="M727.04,267.978c0,1.841-4.268,3.326-4.545,5.089-.284,1.81,3.313,4.535,2.76,6.24-.563,1.736-5.081,1.826-5.9,3.429-.826,1.62,1.748,5.329.686,6.789s-5.391.158-6.67,1.438.029,5.6-1.437,6.67-5.169-1.512-6.788-.685c-1.6.818-1.694,5.336-3.429,5.9-1.7.554-4.431-3.044-6.241-2.76-1.763.277-3.248,4.545-5.089,4.545s-3.325-4.267-5.089-4.545c-1.81-.284-4.536,3.314-6.241,2.76-1.735-.563-1.826-5.081-3.429-5.9-1.62-.827-5.329,1.748-6.789.685s-.157-5.391-1.437-6.671-5.6.029-6.671-1.437,1.513-5.169.686-6.788c-.818-1.6-5.336-1.694-5.9-3.429-.553-1.7,3.044-4.431,2.76-6.241-.277-1.763-4.545-3.248-4.545-5.089s4.268-3.325,4.545-5.088c.284-1.81-3.313-4.536-2.76-6.241.564-1.735,5.082-1.826,5.9-3.429.827-1.619-1.748-5.329-.686-6.789s5.392-.157,6.671-1.437-.028-5.6,1.437-6.67,5.169,1.513,6.789.686c1.6-.818,1.693-5.336,3.429-5.9,1.705-.554,4.43,3.045,6.24,2.761,1.763-.277,3.248-4.545,5.089-4.545s3.326,4.268,5.089,4.545c1.81.284,4.535-3.314,6.24-2.761,1.735.564,1.826,5.082,3.429,5.9,1.62.827,5.329-1.748,6.789-.686s.157,5.392,1.437,6.671,5.6-.029,6.67,1.437-1.513,5.169-.686,6.788c.818,1.6,5.336,1.693,5.9,3.428.553,1.7-3.044,4.431-2.76,6.241C722.772,264.652,727.04,266.137,727.04,267.978Z" transform="translate(-653.736 -231.327)"/></g><path class="a" d="M721.148,272.639a26.1,26.1,0,1,1-26.1-26.1A26.1,26.1,0,0,1,721.148,272.639Z" transform="translate(-658.397 -235.988)"/><path class="a" d="M688.773,276.6l7.591,7.591,15.357-15.357,4.553,4.307-19.909,19.909-12.491-11.587Z" transform="translate(-662.969 -242.816)"/></g></svg>