<svg xmlns="http://www.w3.org/2000/svg" width="74.88" height="80.468" viewBox="0 0 74.88 80.468"><defs><style>.a{fill:none;stroke:#ad1f23;stroke-linecap:round;stroke-linejoin:round;stroke-width:3px;}</style></defs><g transform="translate(1.879 1.515)"><path class="a" d="M83.268,113.021c-2.829-14.723-12.391-12.886-11.08-28.4C73.559,68.4,91.831,68.63,91.831,68.63S110.1,68.4,111.474,84.618c1.312,15.517-8.25,13.68-11.08,28.4Z" transform="translate(-55.219 -52.377)"/><rect class="a" width="17.501" height="5.357" transform="translate(28.036 67.061)"/><rect class="a" width="17.501" height="5.357" transform="translate(28.036 61.704)"/><path class="a" d="M87.755,147.381l3.67,5.035h10.161l3.67-5.035Z" transform="translate(-59.719 -74.963)"/><path class="a" d="M65.141,57.139A31.626,31.626,0,0,1,109.7,53.246" transform="translate(-53.233 -45.842)"/><path class="a" d="M63.634,115.134A31.626,31.626,0,0,1,56.65,70.955" transform="translate(-49.063 -53.044)"/><path class="a" d="M48.445,72.517l7.649-2.393,2.66,8.5" transform="translate(-48.445 -52.806)"/><path class="a" d="M136.475,66.484a31.626,31.626,0,0,1-2.814,44.639" transform="translate(-72.884 -51.762)"/><path class="a" d="M141.084,125.626l-7.987.668-.743-8.879" transform="translate(-72.51 -66.369)"/><path class="a" d="M124.453,46.173l1.175,8.48-8.177.817" transform="translate(-68.235 -45.937)"/></g></svg>