<svg xmlns="http://www.w3.org/2000/svg" width="69.44" height="69.44" viewBox="0 0 69.44 69.44"><defs><style>.a{fill:none;stroke:#ad1f23;stroke-linecap:round;stroke-linejoin:round;stroke-width:3px;}</style></defs><g transform="translate(1.5 1.5)"><g transform="translate(28.111 8.268)"><path class="a" d="M85.344,261.746c-4.457,5.209-5.614,12.021-4.455,18.643a38.309,38.309,0,0,0,1.681,6.265c.343.966.721,1.921,1.127,2.864.191.447,1.41,2.852,1.959,1.525.323-.782-.345-1.691-.506-2.434-.139-.639-.289-1.3-.416-1.952a5.778,5.778,0,0,1,.13-3.055c.875-2.464,3.406-4.345,5.205-6.107q.966-.947,1.915-1.912c6.581-6.707,3.463-21.748,2.579-25.419C93.716,251.576,91.312,254.772,85.344,261.746Z" transform="translate(-80.468 -250.164)"/></g><path class="a" d="M79,287.445s-3.255-8.879.053-15.157c0,0,2.123-6.341,6.145-9.815,0,0-9.986.625-12.882,9.252s7.063,17.012,7.063,17.012Z" transform="translate(-49.698 -245.667)"/><path class="a" d="M47.64,308.251c19.853,10.1,36.024-10.432,55.877-.33" transform="translate(-42.3 -258.708)"/><ellipse class="a" cx="33.22" cy="33.22" rx="33.22" ry="33.22" transform="translate(0 0)"/></g></svg>