<?xml version="1.0" encoding="utf-8"?>
<!-- Generator: Adobe Illustrator 23.0.1, SVG Export Plug-In . SVG Version: 6.00 Build 0)  -->
<svg version="1.1" id="Layer_1" xmlns="http://www.w3.org/2000/svg" xmlns:xlink="http://www.w3.org/1999/xlink" x="0px" y="0px"
	 viewBox="0 0 102 102" style="enable-background:new 0 0 102 102;" xml:space="preserve">
<style type="text/css">
	.st0{fill-rule:evenodd;clip-rule:evenodd;fill:#FFFFFF;stroke:#D5D5D5;}
	.st1{fill-rule:evenodd;clip-rule:evenodd;fill:#323232;}
	.st2{fill-rule:evenodd;clip-rule:evenodd;fill:#FFFFFF;}
</style>
<title>pricing icon</title>
<desc>Created with Sketch.</desc>
<g id="Store-Detail">
	<g transform="translate(-1082.000000, -918.000000)">
		<g id="pricing-icon" transform="translate(1083.000000, 919.000000)">
			<circle id="Oval" class="st0" cx="50" cy="50" r="50"/>
			<path id="Fill-1" class="st1" d="M77.8,38.8l-4.3,4.3c0.7,2.2,1,4.5,1,6.9c0,13.6-11,24.6-24.6,24.6S25.4,63.6,25.4,50
				s11-24.6,24.6-24.6c6.1,0,11.7,2.2,16,5.9l3.9-3.9C64.3,22.6,57.4,20,50,20c-8,0-15.5,3.1-21.2,8.8C23.1,34.5,20,42,20,50
				s3.1,15.5,8.8,21.2C34.5,76.9,42,80,50,80c8,0,15.5-3.1,21.2-8.8C76.9,65.5,80,58,80,50C80,46.1,79.3,42.3,77.8,38.8"/>
			<circle class="st2" cx="50" cy="50" r="27"/>
			<path id="Fill-4" class="st1" d="M81.7,31.9l-5.6,5.7l-4,4.1L50.8,63.6c-0.5,0.5-1.2,0.5-1.7,0L43.6,58l-8.2-8.5
				c-0.5-0.5-0.5-1.2,0-1.7L40,43c0.5-0.5,1.2-0.5,1.7,0l7.4,7.6c0.5,0.5,1.2,0.5,1.7,0l24.5-25.2c0.5-0.5,1.2-0.5,1.7,0l4.7,4.8
				C82.1,30.6,82.1,31.4,81.7,31.9"/>
		</g>
	</g>
</g>
</svg>
