<svg xmlns="http://www.w3.org/2000/svg" width="242.722" height="42.512" viewBox="0 0 242.722 42.512"><defs><style>.a{fill:#fff;}</style></defs><g transform="translate(-1492.029 -174.714)"><g transform="translate(1492.029 174.714)"><g transform="translate(0 18.518)"><path class="a" d="M229.082,411.273v23.993H471.8V411.273ZM293.093,419h-7.8v2.275h7.766v3.513h-7.8v5.271h-5.177V415.4h13.019Zm18.511,6.982a4.466,4.466,0,0,1-2.046,3.056c-2.575,1.659-7.689,1.8-10.454.64a4.673,4.673,0,0,1-2.992-3.579V415.334h5.076v9.952c0,.436.416,1.6,2.841,1.6s2.576-1.659,2.576-1.659v-9.893h5Zm12.529,4.062-4.459-5.669v5.669h-4.91v-14.7h9.369c1.023,0,5.2.68,5.2,4.347s-4.91,3.931-4.91,3.931l5.6,6.425Zm24.335-.077h-6l-6.038-9.645v9.683h-4.581V415.35h7.038l4.872,8.961v-8.961h4.706Zm8.412.077h-5.045v-14.7h5.045Zm16.907-10.585h-4.76v10.592h-5.085v-10.63h-4.882v-4.071h14.728Zm17.446,6.6a4.485,4.485,0,0,1-2.026,3.072c-2.552,1.668-7.616,1.814-10.355.643a4.7,4.7,0,0,1-2.964-3.6V415.351h5.028v10.007c0,.439.413,1.609,2.814,1.609s2.551-1.667,2.551-1.667v-9.948h4.952Zm12.655,4.013L399.36,424.4v5.677h-4.984V415.35h9.511c1.038,0,5.274.681,5.274,4.353s-4.983,3.936-4.983,3.936l5.689,6.435Zm20.461.011-12.922-.038V415.325h12.837v3.624H416v1.793h8.258v3.737h-8.215v1.869h8.3Z" transform="translate(-229.082 -411.273)"/><path class="a" d="M1345.468,505.825H1342.6v2.684h3.028s1.6,0,1.6-1.436S1345.468,505.825,1345.468,505.825Z" transform="translate(-1252.013 -498.125)"/><path class="a" d="M2325,505.954h-2.907v2.687h3.073s1.62,0,1.62-1.438S2325,505.954,2325,505.954Z" transform="translate(-2151.814 -498.244)"/></g><path class="a" d="M1731.744,188.651" transform="translate(-1609.494 -188.244)"/><g transform="translate(0.097)"><path class="a" d="M240.961,198.919s-.154,1.682-2.624,1.682-2.893-1.18-2.893-1.623V188.887h-5.17V199.8a4.741,4.741,0,0,0,3.048,3.629c2.816,1.18,8.025,1.033,10.649-.649a4.53,4.53,0,0,0,2.084-3.1v-10.8h-5.093Z" transform="translate(-230.273 -188.461)"/><path class="a" d="M469.9,197.882l-4.514-9.23h-6.52v15.1h4.244v-9.973l5.594,9.934h5.556V188.652H469.9Z" transform="translate(-440.264 -188.245)"/><path class="a" d="M676.893,183.668c-4.823.235-6.521,3.95-6.521,7.392s.5,7.392,6.251,8.018c0,0,4.013.508,6.6-1.877v-3.794a6.005,6.005,0,0,1-4.63,2.347c-2.932-.039-3.858-2.112-3.858-4.38a3.579,3.579,0,0,1,3.743-3.6c1.929,0,3.549.2,4.745,2.464v-4.38S681.716,183.433,676.893,183.668Z" transform="translate(-634.568 -183.652)"/><path class="a" d="M854.826,188.657h-4.707v15.1h10.764v-3.833h-6.057Z" transform="translate(-799.691 -188.249)"/><path class="a" d="M993.1,188.657l-4.977,15.058h4.784l.926-3.246h5.131l1.081,3.246h4.861l-4.784-15.058Zm1.7,8.409,1.659-5.437L998,197.066Z" transform="translate(-926.467 -188.25)"/><rect class="a" width="4.977" height="15.097" transform="translate(79.48 0.407)"/><path class="a" d="M1306.538,198.664l-2.316-10.012h-7.368v15.1h4.476V192.954l3.047,10.795h4.322l2.932-10.912V203.71h4.476V188.652h-7.254Z" transform="translate(-1210.081 -188.245)"/><path class="a" d="M1566.13,197.564h7.408v-3.833h-7.447v-1.838h7.447v-3.676l-11.575-.039v15.1h11.652V199.48h-7.485Z" transform="translate(-1453.623 -187.809)"/><path class="a" d="M1738.408,188.657h-7.1l-.039,15.058h7.37s7.292-.2,7.369-7.666S1738.408,188.657,1738.408,188.657Zm.829,10.748h-4.157v-6.376h3.932s2.427-.168,2.427,3.089C1741.439,199.215,1739.237,199.4,1739.237,199.4Z" transform="translate(-1609.156 -188.249)"/><path class="a" d="M2024.039,207.724h5.248v-5.271h7.909V198.94h-7.871v-2.275h7.91v-3.6h-13.2Z" transform="translate(-1878.106 -192.298)"/><path class="a" d="M2227.768,193.443c0-3.756-3.9-4.452-4.85-4.452h-8.746v15.061h4.583v-5.808l4.163,5.808h5.5l-5.233-6.582S2227.768,197.2,2227.768,193.443Zm-6.187,2.013h-2.826v-2.749h2.674s1.643-.193,1.643,1.278A1.454,1.454,0,0,1,2221.58,195.456Z" transform="translate(-2052.77 -188.556)"/><path class="a" d="M2401.489,203.575h11.534V199.82h-7.372v-2.013h7.372v-3.678h-7.372v-1.936h7.41v-3.678h-11.573Z" transform="translate(-2224.848 -188.119)"/><rect class="a" width="4.812" height="15.099" transform="translate(190.542 0.396)"/><path class="a" d="M2663.258,199.536a3.587,3.587,0,0,1-4.163-.658c-1.872-1.9-.993-6.737,2.292-7.356a5.452,5.452,0,0,1,5.728,2.129v-4.143s-1.68-1.471-6.11-1.471-5.767,2.594-5.958,2.788-2.979,4.84,0,9.292,9.128,3.446,11.114,1.936a8.745,8.745,0,0,0,1.566-1.7v-4.956h-4.469Z" transform="translate(-2456.521 -187.68)"/><path class="a" d="M2859.725,193.651h-4.545v-5.614h-4.889v15.138h4.927v-5.807h4.431v5.769h4.965v-15.1h-4.888Z" transform="translate(-2637.138 -187.68)"/><path class="a" d="M3040.886,188.515V192.7h4.583v10.918h4.774V192.735h4.469v-4.22Z" transform="translate(-2812.227 -188.119)"/></g></g></g></svg>