<svg xmlns="http://www.w3.org/2000/svg" width="136" height="62" viewBox="0 0 136 62"><defs><style>.a{fill:#fff;}</style></defs><g transform="translate(24.468 7)"><g transform="translate(0.268 25.001)"><path class="a" d="M412.4,252.71h-1.622v1.5h1.715s.9,0,.9-.8S412.4,252.71,412.4,252.71Z" transform="translate(-341.061 -247.03)"/><path class="a" d="M136.389,230.371v15.523H222.8V230.371Zm10.415,5.69h-4.355v1.269h4.333v1.96h-4.355v2.941h-2.889v-8.18H146.8Zm10.329,3.9a2.491,2.491,0,0,1-1.141,1.7,7.51,7.51,0,0,1-5.834.357,2.608,2.608,0,0,1-1.67-2v-6.008h2.832v5.553c0,.244.232.893,1.585.893s1.437-.925,1.437-.925v-5.521h2.79Zm6.991,2.267-2.488-3.163v3.163H158.9v-8.2h5.228c.571,0,2.9.38,2.9,2.426s-2.74,2.193-2.74,2.193l3.127,3.585Zm13.58-.042h-3.346l-3.369-5.382v5.4h-2.556v-8.179h3.927l2.719,5v-5H177.7Zm4.694.042h-2.816v-8.2H182.4Zm9.434-5.907h-2.656v5.911h-2.838V236.3h-2.724v-2.272h8.218ZM201.568,240a2.5,2.5,0,0,1-1.13,1.715,7.339,7.339,0,0,1-5.779.359,2.621,2.621,0,0,1-1.654-2.008v-6.042h2.806v5.584c0,.245.23.9,1.57.9s1.424-.93,1.424-.93v-5.552h2.764Zm7.062,2.239-2.526-3.168v3.168h-2.781v-8.216h5.307c.579,0,2.943.38,2.943,2.429s-2.781,2.2-2.781,2.2l3.175,3.591Zm11.418.006-7.211-.021v-8.215H220v2.022h-4.608v1H220v2.086h-4.584v1.043h4.632Z" transform="translate(-136.389 -230.371)"/><path class="a" d="M237.358,252.686h-1.6v1.5h1.689s.891,0,.891-.8S237.358,252.686,237.358,252.686Z" transform="translate(-210.512 -247.013)"/></g><path class="a" d="M191.29,191.537v3.718H188.4V184.914h7.267v2.539h-4.356v1.6h4.335v2.478Z" transform="translate(-174.918 -171.462)"/><path class="a" d="M227.623,192.923s2.965-.175,2.965-2.6-2.521-2.88-3.138-2.88h-5.659v9.744h2.966v-3.758l2.693,3.758h3.558Zm-1.038-1.811h-1.828v-1.779h1.729s1.063-.125,1.063.827A.94.94,0,0,1,226.585,191.113Z" transform="translate(-199.824 -173.345)"/><path class="a" d="M260.6,187.338v9.744h7.462v-2.43h-4.769v-1.3h4.769v-2.38h-4.769v-1.253h4.794v-2.38Z" transform="translate(-228.771 -173.27)"/><rect class="a" width="3.113" height="9.769" transform="translate(40.821 14.068)"/><path class="a" d="M321.537,190.871v-2.68s-1.087-.952-3.954-.952a4.2,4.2,0,0,0-3.855,1.8,5.66,5.66,0,0,0,0,6.012c1.928,2.881,5.906,2.23,7.191,1.253a5.665,5.665,0,0,0,1.013-1.1V192h-2.891v2.68a2.32,2.32,0,0,1-2.693-.426c-1.211-1.227-.643-4.359,1.482-4.759A3.528,3.528,0,0,1,321.537,190.871Z" transform="translate(-267.743 -173.196)"/><path class="a" d="M353.576,187.239v9.795h3.188v-3.758h2.866v3.732h3.212v-9.769H359.68v3.632h-2.94v-3.632Z" transform="translate(-298.126 -173.197)"/><path class="a" d="M393.063,187.338v2.705h2.966v7.064h3.089v-7.039h2.891v-2.73Z" transform="translate(-327.58 -173.27)"/><path class="a" d="M440.919,131.969" transform="translate(-363.278 -131.969)"/><g transform="translate(0.508 2.443)"><path class="a" d="M137.334,141.586v7.4a3.221,3.221,0,0,0,1.745,2.46,6.776,6.776,0,0,0,6.1-.44,3.07,3.07,0,0,0,1.193-2.1v-7.32h-2.916v6.8a1.337,1.337,0,0,1-1.5,1.14c-1.414,0-1.657-.8-1.657-1.1v-6.84Z" transform="translate(-137.334 -141.586)"/><path class="a" d="M179.962,143.973V153.6h2.706v-6.358l3.567,6.333h3.542v-9.6H187v5.884l-2.878-5.884Z" transform="translate(-169.131 -143.366)"/><path class="a" d="M231.327,144.358s-.959-1.546-4.034-1.4-4.156,2.518-4.156,4.712.32,4.712,3.984,5.111a5.8,5.8,0,0,0,4.206-1.2V149.17a3.83,3.83,0,0,1-2.951,1.5c-1.87-.025-2.46-1.347-2.46-2.792a2.281,2.281,0,0,1,2.385-2.294,2.859,2.859,0,0,1,3.026,1.571Z" transform="translate(-201.337 -142.605)"/><path class="a" d="M259.826,143.973V153.6h6.862v-2.443h-3.862v-7.181Z" transform="translate(-228.704 -143.366)"/><path class="a" d="M295.644,143.973h-4.477l-3.172,9.6h3.049l.59-2.07h3.272l.688,2.07h3.1Zm-3.394,5.36,1.057-3.465.984,3.465Z" transform="translate(-249.716 -143.367)"/><rect class="a" width="3.173" height="9.624" transform="translate(49.642 0.606)"/><path class="a" d="M355.711,143.973l1.476,6.383,1.476-6.383h4.624v9.6h-2.853v-6.931l-1.869,6.956H355.81l-1.943-6.882V153.6h-2.853v-9.624Z" transform="translate(-296.723 -143.366)"/><path class="a" d="M405.127,153.5v-9.624l7.378.025v2.344h-4.747v1.172h4.747v2.443h-4.722v1.222h4.772V153.5Z" transform="translate(-337.088 -143.293)"/><path class="a" d="M444.236,143.973H439.71l-.025,9.6h4.7s4.649-.124,4.7-4.887S444.236,143.973,444.236,143.973Zm.528,6.852h-2.649V146.76h2.506s1.548-.107,1.548,1.969C446.167,150.7,444.763,150.825,444.763,150.825Z" transform="translate(-362.865 -143.366)"/></g><g transform="translate(0 18.323)"><rect class="a" width="10.925" height="1.779" transform="translate(0)"/></g><g transform="translate(75.714 18.323)"><rect class="a" width="10.925" height="1.779"/></g></g></svg>